<svg width="429" height="80" viewBox="0 0 429 80" fill="none" xmlns="http://www.w3.org/2000/svg">
<rect width="429" height="80" rx="10" fill="#3847C9"/>
<path d="M91.0938 46.5469V49.5H80.5117V46.5469H91.0938ZM81.6602 29.5938V49.5H77.9004V29.5938H81.6602ZM89.7129 37.8105V40.6953H80.5117V37.8105H89.7129ZM91.0527 29.5938V32.5605H80.5117V29.5938H91.0527ZM96.2617 34.707L98.9004 39.4102L101.58 34.707H105.504L101.156 41.9531L105.682 49.5H101.758L98.9277 44.5645L96.084 49.5H92.1602L96.6719 41.9531L92.3516 34.707H96.2617ZM111.205 37.5508V55.1875H107.582V34.707H110.932L111.205 37.5508ZM120.707 41.9531V42.2402C120.707 43.3158 120.579 44.3138 120.324 45.2344C120.078 46.1458 119.714 46.9434 119.23 47.627C118.747 48.3014 118.146 48.8301 117.426 49.2129C116.715 49.5866 115.895 49.7734 114.965 49.7734C114.053 49.7734 113.26 49.6003 112.586 49.2539C111.911 48.8984 111.342 48.3971 110.877 47.75C110.412 47.1029 110.038 46.3509 109.756 45.4941C109.482 44.6283 109.277 43.6849 109.141 42.6641V41.748C109.277 40.6634 109.482 39.679 109.756 38.7949C110.038 37.9017 110.412 37.1315 110.877 36.4844C111.342 35.8281 111.907 35.3223 112.572 34.9668C113.247 34.6113 114.035 34.4336 114.938 34.4336C115.876 34.4336 116.701 34.6113 117.412 34.9668C118.132 35.3223 118.738 35.8327 119.23 36.498C119.723 37.1634 120.092 37.9564 120.338 38.877C120.584 39.7975 120.707 40.8229 120.707 41.9531ZM117.084 42.2402V41.9531C117.084 41.2969 117.025 40.6908 116.906 40.1348C116.788 39.5697 116.605 39.0775 116.359 38.6582C116.113 38.2298 115.794 37.8971 115.402 37.6602C115.01 37.4232 114.536 37.3047 113.98 37.3047C113.424 37.3047 112.946 37.3958 112.545 37.5781C112.144 37.7604 111.816 38.0202 111.561 38.3574C111.305 38.6947 111.105 39.0957 110.959 39.5605C110.822 40.0163 110.731 40.5221 110.686 41.0781V43.3477C110.768 44.0221 110.927 44.6283 111.164 45.166C111.401 45.7038 111.747 46.1322 112.203 46.4512C112.668 46.7702 113.27 46.9297 114.008 46.9297C114.564 46.9297 115.038 46.8066 115.43 46.5605C115.822 46.3145 116.141 45.9772 116.387 45.5488C116.633 45.1113 116.811 44.61 116.92 44.0449C117.029 43.4798 117.084 42.8783 117.084 42.2402ZM127.174 28.5V49.5H123.551V28.5H127.174ZM129.977 42.2539V41.9668C129.977 40.8822 130.132 39.8841 130.441 38.9727C130.751 38.0521 131.202 37.2546 131.795 36.5801C132.387 35.9056 133.112 35.3815 133.969 35.0078C134.826 34.625 135.801 34.4336 136.895 34.4336C138.007 34.4336 138.991 34.625 139.848 35.0078C140.714 35.3815 141.443 35.9056 142.035 36.5801C142.628 37.2546 143.079 38.0521 143.389 38.9727C143.699 39.8841 143.854 40.8822 143.854 41.9668V42.2539C143.854 43.3294 143.699 44.3275 143.389 45.248C143.079 46.1595 142.628 46.957 142.035 47.6406C141.443 48.3151 140.718 48.8392 139.861 49.2129C139.005 49.5866 138.025 49.7734 136.922 49.7734C135.828 49.7734 134.848 49.5866 133.982 49.2129C133.117 48.8392 132.387 48.3151 131.795 47.6406C131.202 46.957 130.751 46.1595 130.441 45.248C130.132 44.3275 129.977 43.3294 129.977 42.2539ZM133.586 41.9668V42.2539C133.586 42.901 133.65 43.5072 133.777 44.0723C133.905 44.6374 134.101 45.1341 134.365 45.5625C134.63 45.9909 134.971 46.3281 135.391 46.5742C135.819 46.8112 136.329 46.9297 136.922 46.9297C137.505 46.9297 138.007 46.8112 138.426 46.5742C138.845 46.3281 139.187 45.9909 139.451 45.5625C139.725 45.1341 139.925 44.6374 140.053 44.0723C140.18 43.5072 140.244 42.901 140.244 42.2539V41.9668C140.244 41.3288 140.18 40.7318 140.053 40.1758C139.925 39.6107 139.725 39.1139 139.451 38.6855C139.187 38.248 138.84 37.9062 138.412 37.6602C137.993 37.4049 137.487 37.2773 136.895 37.2773C136.311 37.2773 135.81 37.4049 135.391 37.6602C134.971 37.9062 134.63 38.248 134.365 38.6855C134.101 39.1139 133.905 39.6107 133.777 40.1758C133.65 40.7318 133.586 41.3288 133.586 41.9668ZM150.088 37.7285V49.5H146.479V34.707H149.896L150.088 37.7285ZM154.586 34.6113L154.531 37.9746C154.331 37.9382 154.103 37.9108 153.848 37.8926C153.602 37.8743 153.369 37.8652 153.15 37.8652C152.594 37.8652 152.107 37.9427 151.688 38.0977C151.268 38.2435 150.917 38.4577 150.635 38.7402C150.361 39.0228 150.152 39.3691 150.006 39.7793C149.86 40.1803 149.778 40.6361 149.76 41.1465L148.98 41.0508C148.98 40.112 149.076 39.2415 149.268 38.4395C149.459 37.6374 149.737 36.9355 150.102 36.334C150.466 35.7324 150.922 35.2676 151.469 34.9395C152.025 34.6022 152.663 34.4336 153.383 34.4336C153.583 34.4336 153.798 34.4518 154.025 34.4883C154.262 34.5156 154.449 34.5566 154.586 34.6113ZM162.939 49.7734C161.818 49.7734 160.811 49.5911 159.918 49.2266C159.025 48.862 158.264 48.3561 157.635 47.709C157.015 47.0527 156.536 46.2917 156.199 45.4258C155.871 44.5508 155.707 43.612 155.707 42.6094V42.0625C155.707 40.9232 155.871 39.8887 156.199 38.959C156.527 38.0202 156.992 37.2135 157.594 36.5391C158.195 35.8646 158.915 35.3451 159.754 34.9805C160.592 34.6159 161.518 34.4336 162.529 34.4336C163.577 34.4336 164.503 34.6113 165.305 34.9668C166.107 35.3132 166.777 35.8053 167.314 36.4434C167.852 37.0814 168.258 37.847 168.531 38.7402C168.805 39.6243 168.941 40.6042 168.941 41.6797V43.1973H157.348V40.709H165.387V40.4355C165.368 39.8613 165.259 39.3372 165.059 38.8633C164.858 38.3802 164.548 37.9974 164.129 37.7148C163.71 37.4232 163.167 37.2773 162.502 37.2773C161.964 37.2773 161.495 37.3958 161.094 37.6328C160.702 37.8607 160.374 38.1888 160.109 38.6172C159.854 39.0365 159.663 39.5378 159.535 40.1211C159.408 40.7044 159.344 41.3516 159.344 42.0625V42.6094C159.344 43.2292 159.426 43.8034 159.59 44.332C159.763 44.8607 160.014 45.321 160.342 45.7129C160.679 46.0957 161.08 46.3965 161.545 46.6152C162.019 46.8249 162.557 46.9297 163.158 46.9297C163.915 46.9297 164.598 46.7839 165.209 46.4922C165.829 46.1914 166.367 45.7493 166.822 45.166L168.641 47.0527C168.331 47.5085 167.911 47.946 167.383 48.3652C166.863 48.7845 166.234 49.1263 165.496 49.3906C164.758 49.6458 163.906 49.7734 162.939 49.7734ZM180.248 29.5938H183.502L188.943 44.5781L194.371 29.5938H197.639L190.242 49.5H187.631L180.248 29.5938ZM178.607 29.5938H181.793L182.367 43.3613V49.5H178.607V29.5938ZM196.08 29.5938H199.279V49.5H195.52V43.3613L196.08 29.5938ZM202.191 42.2539V41.9668C202.191 40.8822 202.346 39.8841 202.656 38.9727C202.966 38.0521 203.417 37.2546 204.01 36.5801C204.602 35.9056 205.327 35.3815 206.184 35.0078C207.04 34.625 208.016 34.4336 209.109 34.4336C210.221 34.4336 211.206 34.625 212.062 35.0078C212.928 35.3815 213.658 35.9056 214.25 36.5801C214.842 37.2546 215.294 38.0521 215.604 38.9727C215.913 39.8841 216.068 40.8822 216.068 41.9668V42.2539C216.068 43.3294 215.913 44.3275 215.604 45.248C215.294 46.1595 214.842 46.957 214.25 47.6406C213.658 48.3151 212.933 48.8392 212.076 49.2129C211.219 49.5866 210.24 49.7734 209.137 49.7734C208.043 49.7734 207.063 49.5866 206.197 49.2129C205.331 48.8392 204.602 48.3151 204.01 47.6406C203.417 46.957 202.966 46.1595 202.656 45.248C202.346 44.3275 202.191 43.3294 202.191 42.2539ZM205.801 41.9668V42.2539C205.801 42.901 205.865 43.5072 205.992 44.0723C206.12 44.6374 206.316 45.1341 206.58 45.5625C206.844 45.9909 207.186 46.3281 207.605 46.5742C208.034 46.8112 208.544 46.9297 209.137 46.9297C209.72 46.9297 210.221 46.8112 210.641 46.5742C211.06 46.3281 211.402 45.9909 211.666 45.5625C211.939 45.1341 212.14 44.6374 212.268 44.0723C212.395 43.5072 212.459 42.901 212.459 42.2539V41.9668C212.459 41.3288 212.395 40.7318 212.268 40.1758C212.14 39.6107 211.939 39.1139 211.666 38.6855C211.402 38.248 211.055 37.9062 210.627 37.6602C210.208 37.4049 209.702 37.2773 209.109 37.2773C208.526 37.2773 208.025 37.4049 207.605 37.6602C207.186 37.9062 206.844 38.248 206.58 38.6855C206.316 39.1139 206.12 39.6107 205.992 40.1758C205.865 40.7318 205.801 41.3288 205.801 41.9668ZM222.303 37.7285V49.5H218.693V34.707H222.111L222.303 37.7285ZM226.801 34.6113L226.746 37.9746C226.546 37.9382 226.318 37.9108 226.062 37.8926C225.816 37.8743 225.584 37.8652 225.365 37.8652C224.809 37.8652 224.322 37.9427 223.902 38.0977C223.483 38.2435 223.132 38.4577 222.85 38.7402C222.576 39.0228 222.367 39.3691 222.221 39.7793C222.075 40.1803 221.993 40.6361 221.975 41.1465L221.195 41.0508C221.195 40.112 221.291 39.2415 221.482 38.4395C221.674 37.6374 221.952 36.9355 222.316 36.334C222.681 35.7324 223.137 35.2676 223.684 34.9395C224.24 34.6022 224.878 34.4336 225.598 34.4336C225.798 34.4336 226.012 34.4518 226.24 34.4883C226.477 34.5156 226.664 34.5566 226.801 34.6113ZM235.154 49.7734C234.033 49.7734 233.026 49.5911 232.133 49.2266C231.24 48.862 230.479 48.3561 229.85 47.709C229.23 47.0527 228.751 46.2917 228.414 45.4258C228.086 44.5508 227.922 43.612 227.922 42.6094V42.0625C227.922 40.9232 228.086 39.8887 228.414 38.959C228.742 38.0202 229.207 37.2135 229.809 36.5391C230.41 35.8646 231.13 35.3451 231.969 34.9805C232.807 34.6159 233.732 34.4336 234.744 34.4336C235.792 34.4336 236.717 34.6113 237.52 34.9668C238.322 35.3132 238.992 35.8053 239.529 36.4434C240.067 37.0814 240.473 37.847 240.746 38.7402C241.02 39.6243 241.156 40.6042 241.156 41.6797V43.1973H229.562V40.709H237.602V40.4355C237.583 39.8613 237.474 39.3372 237.273 38.8633C237.073 38.3802 236.763 37.9974 236.344 37.7148C235.924 37.4232 235.382 37.2773 234.717 37.2773C234.179 37.2773 233.71 37.3958 233.309 37.6328C232.917 37.8607 232.589 38.1888 232.324 38.6172C232.069 39.0365 231.878 39.5378 231.75 40.1211C231.622 40.7044 231.559 41.3516 231.559 42.0625V42.6094C231.559 43.2292 231.641 43.8034 231.805 44.332C231.978 44.8607 232.229 45.321 232.557 45.7129C232.894 46.0957 233.295 46.3965 233.76 46.6152C234.234 46.8249 234.771 46.9297 235.373 46.9297C236.13 46.9297 236.813 46.7839 237.424 46.4922C238.044 46.1914 238.581 45.7493 239.037 45.166L240.855 47.0527C240.546 47.5085 240.126 47.946 239.598 48.3652C239.078 48.7845 238.449 49.1263 237.711 49.3906C236.973 49.6458 236.12 49.7734 235.154 49.7734ZM254.582 29.5938V49.5H250.822V29.5938H254.582ZM262.607 38.1934V41.1602H253.598V38.1934H262.607ZM263.66 29.5938V32.5605H253.598V29.5938H263.66ZM269.771 34.707V49.5H266.148V34.707H269.771ZM265.902 30.8379C265.902 30.3001 266.085 29.8535 266.449 29.498C266.823 29.1426 267.324 28.9648 267.953 28.9648C268.582 28.9648 269.079 29.1426 269.443 29.498C269.817 29.8535 270.004 30.3001 270.004 30.8379C270.004 31.3665 269.817 31.8086 269.443 32.1641C269.079 32.5195 268.582 32.6973 267.953 32.6973C267.324 32.6973 266.823 32.5195 266.449 32.1641C266.085 31.8086 265.902 31.3665 265.902 30.8379ZM282.623 34.707H285.904V49.0488C285.904 50.3887 285.613 51.5234 285.029 52.4531C284.455 53.3919 283.648 54.1029 282.609 54.5859C281.57 55.0781 280.363 55.3242 278.986 55.3242C278.394 55.3242 277.751 55.2422 277.059 55.0781C276.375 54.9141 275.714 54.6543 275.076 54.2988C274.447 53.9525 273.923 53.5013 273.504 52.9453L275.131 50.8125C275.623 51.3867 276.179 51.8197 276.799 52.1113C277.419 52.4121 278.089 52.5625 278.809 52.5625C279.538 52.5625 280.158 52.4258 280.668 52.1523C281.188 51.888 281.584 51.4961 281.857 50.9766C282.14 50.4661 282.281 49.8372 282.281 49.0898V38.084L282.623 34.707ZM272.629 42.2812V41.9941C272.629 40.8639 272.766 39.8385 273.039 38.918C273.312 37.9883 273.704 37.1908 274.215 36.5254C274.734 35.86 275.359 35.3451 276.088 34.9805C276.826 34.6159 277.656 34.4336 278.576 34.4336C279.551 34.4336 280.372 34.6113 281.037 34.9668C281.712 35.3223 282.268 35.8281 282.705 36.4844C283.152 37.1406 283.498 37.9199 283.744 38.8223C283.999 39.7155 284.195 40.6999 284.332 41.7754V42.5547C284.204 43.6029 283.999 44.5645 283.717 45.4395C283.443 46.3145 283.079 47.0801 282.623 47.7363C282.167 48.3835 281.602 48.8848 280.928 49.2402C280.253 49.5957 279.46 49.7734 278.549 49.7734C277.637 49.7734 276.817 49.5866 276.088 49.2129C275.359 48.8392 274.734 48.3151 274.215 47.6406C273.704 46.9661 273.312 46.1732 273.039 45.2617C272.766 44.3503 272.629 43.3568 272.629 42.2812ZM276.238 41.9941V42.2812C276.238 42.9193 276.302 43.5163 276.43 44.0723C276.557 44.6283 276.753 45.1204 277.018 45.5488C277.282 45.9681 277.615 46.2962 278.016 46.5332C278.417 46.7702 278.895 46.8887 279.451 46.8887C280.199 46.8887 280.809 46.7337 281.283 46.4238C281.766 46.1048 282.131 45.6719 282.377 45.125C282.632 44.569 282.796 43.9447 282.869 43.252V41.1055C282.824 40.5586 282.723 40.0527 282.568 39.5879C282.423 39.123 282.217 38.722 281.953 38.3848C281.689 38.0475 281.352 37.7832 280.941 37.5918C280.531 37.4004 280.044 37.3047 279.479 37.3047C278.932 37.3047 278.453 37.4277 278.043 37.6738C277.633 37.9108 277.296 38.2435 277.031 38.6719C276.767 39.1003 276.566 39.597 276.43 40.1621C276.302 40.7272 276.238 41.3379 276.238 41.9941ZM292.699 28.5V49.5H289.076V28.5H292.699ZM292.125 41.5703H291.059C291.059 40.5404 291.195 39.5924 291.469 38.7266C291.742 37.8607 292.13 37.1087 292.631 36.4707C293.132 35.8236 293.729 35.3223 294.422 34.9668C295.124 34.6113 295.898 34.4336 296.746 34.4336C297.475 34.4336 298.136 34.5384 298.729 34.748C299.33 34.9486 299.845 35.2721 300.273 35.7188C300.702 36.1654 301.03 36.7487 301.258 37.4688C301.495 38.1797 301.613 39.0456 301.613 40.0664V49.5H297.977V40.0391C297.977 39.3555 297.876 38.8177 297.676 38.4258C297.475 38.0247 297.188 37.7376 296.814 37.5645C296.45 37.3913 295.999 37.3047 295.461 37.3047C294.878 37.3047 294.376 37.4186 293.957 37.6465C293.538 37.8652 293.191 38.1706 292.918 38.5625C292.654 38.9544 292.453 39.4056 292.316 39.916C292.189 40.4264 292.125 40.9779 292.125 41.5703ZM311.799 34.707V37.3047H303.322V34.707H311.799ZM305.592 31.0703H309.215V45.2344C309.215 45.6719 309.274 46.0091 309.393 46.2461C309.511 46.4831 309.689 46.6426 309.926 46.7246C310.163 46.8066 310.445 46.8477 310.773 46.8477C311.01 46.8477 311.229 46.834 311.43 46.8066C311.63 46.7793 311.799 46.752 311.936 46.7246L311.949 49.4316C311.648 49.5319 311.307 49.6139 310.924 49.6777C310.55 49.7415 310.126 49.7734 309.652 49.7734C308.841 49.7734 308.13 49.6367 307.52 49.3633C306.909 49.0807 306.435 48.6296 306.098 48.0098C305.76 47.3809 305.592 46.5514 305.592 45.5215V31.0703ZM320.85 49.7734C319.729 49.7734 318.721 49.5911 317.828 49.2266C316.935 48.862 316.174 48.3561 315.545 47.709C314.925 47.0527 314.447 46.2917 314.109 45.4258C313.781 44.5508 313.617 43.612 313.617 42.6094V42.0625C313.617 40.9232 313.781 39.8887 314.109 38.959C314.438 38.0202 314.902 37.2135 315.504 36.5391C316.105 35.8646 316.826 35.3451 317.664 34.9805C318.503 34.6159 319.428 34.4336 320.439 34.4336C321.488 34.4336 322.413 34.6113 323.215 34.9668C324.017 35.3132 324.687 35.8053 325.225 36.4434C325.762 37.0814 326.168 37.847 326.441 38.7402C326.715 39.6243 326.852 40.6042 326.852 41.6797V43.1973H315.258V40.709H323.297V40.4355C323.279 39.8613 323.169 39.3372 322.969 38.8633C322.768 38.3802 322.458 37.9974 322.039 37.7148C321.62 37.4232 321.077 37.2773 320.412 37.2773C319.874 37.2773 319.405 37.3958 319.004 37.6328C318.612 37.8607 318.284 38.1888 318.02 38.6172C317.764 39.0365 317.573 39.5378 317.445 40.1211C317.318 40.7044 317.254 41.3516 317.254 42.0625V42.6094C317.254 43.2292 317.336 43.8034 317.5 44.332C317.673 44.8607 317.924 45.321 318.252 45.7129C318.589 46.0957 318.99 46.3965 319.455 46.6152C319.929 46.8249 320.467 46.9297 321.068 46.9297C321.825 46.9297 322.508 46.7839 323.119 46.4922C323.739 46.1914 324.277 45.7493 324.732 45.166L326.551 47.0527C326.241 47.5085 325.822 47.946 325.293 48.3652C324.773 48.7845 324.145 49.1263 323.406 49.3906C322.668 49.6458 321.816 49.7734 320.85 49.7734ZM332.881 37.7285V49.5H329.271V34.707H332.689L332.881 37.7285ZM337.379 34.6113L337.324 37.9746C337.124 37.9382 336.896 37.9108 336.641 37.8926C336.395 37.8743 336.162 37.8652 335.943 37.8652C335.387 37.8652 334.9 37.9427 334.48 38.0977C334.061 38.2435 333.71 38.4577 333.428 38.7402C333.154 39.0228 332.945 39.3691 332.799 39.7793C332.653 40.1803 332.571 40.6361 332.553 41.1465L331.773 41.0508C331.773 40.112 331.869 39.2415 332.061 38.4395C332.252 37.6374 332.53 36.9355 332.895 36.334C333.259 35.7324 333.715 35.2676 334.262 34.9395C334.818 34.6022 335.456 34.4336 336.176 34.4336C336.376 34.4336 336.59 34.4518 336.818 34.4883C337.055 34.5156 337.242 34.5566 337.379 34.6113ZM347.496 45.4531C347.496 45.1432 347.414 44.8652 347.25 44.6191C347.086 44.373 346.776 44.1497 346.32 43.9492C345.874 43.7396 345.217 43.5436 344.352 43.3613C343.586 43.1973 342.88 42.9922 342.232 42.7461C341.585 42.5 341.029 42.2038 340.564 41.8574C340.1 41.502 339.735 41.0872 339.471 40.6133C339.215 40.1302 339.088 39.5742 339.088 38.9453C339.088 38.3346 339.22 37.7604 339.484 37.2227C339.749 36.6758 340.132 36.1973 340.633 35.7871C341.134 35.3678 341.745 35.0397 342.465 34.8027C343.185 34.5566 343.996 34.4336 344.898 34.4336C346.156 34.4336 347.236 34.6387 348.139 35.0488C349.05 35.459 349.747 36.0241 350.23 36.7441C350.714 37.4551 350.955 38.2572 350.955 39.1504H347.346C347.346 38.7585 347.255 38.403 347.072 38.084C346.899 37.765 346.63 37.5098 346.266 37.3184C345.901 37.1178 345.441 37.0176 344.885 37.0176C344.383 37.0176 343.96 37.0996 343.613 37.2637C343.276 37.4277 343.021 37.6419 342.848 37.9062C342.674 38.1706 342.588 38.4622 342.588 38.7812C342.588 39.0182 342.633 39.2324 342.725 39.4238C342.825 39.6061 342.984 39.7747 343.203 39.9297C343.422 40.0846 343.718 40.2259 344.092 40.3535C344.475 40.4811 344.944 40.6042 345.5 40.7227C346.603 40.9414 347.564 41.2331 348.385 41.5977C349.214 41.9531 349.861 42.4271 350.326 43.0195C350.791 43.612 351.023 44.3685 351.023 45.2891C351.023 45.9453 350.882 46.5469 350.6 47.0938C350.317 47.6315 349.907 48.1009 349.369 48.502C348.831 48.903 348.189 49.2174 347.441 49.4453C346.694 49.6641 345.851 49.7734 344.912 49.7734C343.554 49.7734 342.406 49.5319 341.467 49.0488C340.528 48.5566 339.817 47.9368 339.334 47.1895C338.851 46.4329 338.609 45.6491 338.609 44.8379H342.068C342.096 45.4121 342.251 45.8724 342.533 46.2188C342.816 46.5651 343.171 46.8158 343.6 46.9707C344.037 47.1165 344.497 47.1895 344.98 47.1895C345.527 47.1895 345.988 47.1165 346.361 46.9707C346.735 46.8158 347.018 46.6107 347.209 46.3555C347.4 46.0911 347.496 45.7904 347.496 45.4531Z" fill="white"/>
</svg>
